<svg id="Layer_1" data-name="Layer 1" xmlns="http://www.w3.org/2000/svg" xmlns:xlink="http://www.w3.org/1999/xlink" width="642.21" height="243.12" viewBox="0 0 642.21 243.12"><defs><style>.cls-1,.cls-10,.cls-11,.cls-12,.cls-13,.cls-14,.cls-15,.cls-16,.cls-17,.cls-18,.cls-9{fill:none;}.cls-2{fill:#0a0203;}.cls-3{fill:#fff;}.cls-4{fill:#fcc978;}.cls-5{clip-path:url(#clip-path);}.cls-6{fill:#31251c;}.cls-7{clip-path:url(#clip-path-2);}.cls-8{clip-path:url(#clip-path-3);}.cls-10,.cls-11,.cls-12,.cls-13,.cls-14,.cls-15,.cls-16,.cls-17,.cls-18,.cls-9{stroke:#31251c;stroke-miterlimit:10;}.cls-9{stroke-width:0.2px;}.cls-10{stroke-width:0.21px;}.cls-11{stroke-width:0.22px;}.cls-12{stroke-width:0.19px;}.cls-13{stroke-width:0.18px;}.cls-14{stroke-width:0.17px;}.cls-15{stroke-width:0.15px;}.cls-16{stroke-width:0.14px;}.cls-17{stroke-width:0.11px;}.cls-18{stroke-width:0.12px;}</style><clipPath id="clip-path" transform="translate(36.51 40.2)"><path class="cls-1" d="M115.69,37.17C112.21,27,107.48,21.3,107.48,21.3c-7,6.61-23.1,12.85-51.11,2.93S21.14,30.16,21.14,35.9c0,3.06,1,10.36,10.65,10.36,6.13,0,9.64-5.64,9.64-8.91s-2.62-7.44-2.62-7.44c4.39,0,6.39,0,13.48,2.93L46.47,46.17l.66,1.52,6.29-14.32,3,1.3L48.91,51.78l.66,1.52,8-18.13,3,1.35L51.41,57.39l.66,1.52L61.67,37l3,1.37L53.76,62.93l.66,1.52L65.65,38.87l3,1.35L56.23,68.52,56.89,70,69.76,40.71l3,1.28L58.68,74.08l.67,1.5L73.89,42.44c1,.39,2,.78,3.06,1.14l-15.8,36,.67,1.49L78.11,44c1,.34,2.07.66,3.14,1L63.64,85.09l.68,1.46L82.43,45.27c1.07.27,2.15.51,3.25.71L66.18,90.41l.68,1.47,20-45.68c1.12.18,2.25.31,3.39.4L68.73,95.67c.23.45.48.9.73,1.35L91.57,46.63a35.62,35.62,0,0,0,3.58,0L71.53,100.46c.23.35.47.68.72,1l.13.06,24.15-55A31.34,31.34,0,0,0,115.69,37.17Zm-83.9,3.68a3.52,3.52,0,1,1,3.52-3.52h0a3.52,3.52,0,0,1-3.49,3.55h0Z"/></clipPath><clipPath id="clip-path-2" transform="translate(36.51 40.2)"><path class="cls-1" d="M108.37,42.72c5.5,42-12.67,64.6-21.2,76-6.78,8.82-7.26,12.73-4.85,16.52-8.87,3.82-16.73,1.76-19.73,1.11a21,21,0,0,1-2.73-5.58c4.73-3.5,12.86-10.63,21.19-24.31,18.5-26.69,15.64-57.4,15.59-60.06A32.93,32.93,0,0,0,108.37,42.72Z"/></clipPath><clipPath id="clip-path-3" transform="translate(36.51 40.2)"><path class="cls-1" d="M115.69,37.17C112.21,27,107.48,21.3,107.48,21.3c-7,6.61-23.1,12.85-51.11,2.93S21.14,30.16,21.14,35.9c0,2.86.84,9.43,8.87,10.27h.16c.74.08,1.79.42,2.57,3.42,8.44,32.79,14.54,65,22.68,83.67a.37.37,0,0,0,.44.26.28.28,0,0,0,.15-.08c2.07-1.49,13.36-7.8,25-27-6.45-3.06-13.12-18.65-13.12-18.65-4.23-8.73-22.73-50.3-22.73-50.3-2.9-6.26-5.06-7-6.39-7.64,6.35,0,7.69,0,26.66,8.86C77.45,44.23,98.34,54.17,115.69,37.17Zm-87.42.17a3.52,3.52,0,1,1,3.52,3.52h0a3.51,3.51,0,0,1-3.52-3.5Z"/></clipPath></defs><title>guinness-logo-back</title><rect class="cls-2" width="642.21" height="243.12"/><g id="LOGO"><path class="cls-3" d="M279.45,66.51C279.45,58.69,286,59,286,59V57.81H262.6V59s6.58-.33,6.58,7.49V109.8c0,7.82-6.58,7.49-6.58,7.49v1.22H286v-1.22s-6.58.33-6.58-7.49Z" transform="translate(36.51 40.2)"/><path class="cls-3" d="M304.1,109.81V74l-4.21-6v41.75c0,6.62-7.84,7.5-7.84,7.5v1.22h20v-1.22S304.1,116.66,304.1,109.81Z" transform="translate(36.51 40.2)"/><path class="cls-3" d="M331.15,57.81V59s8,.72,8,7.58V97.35L310.76,57.83h-19V59s5.37.45,10.34,7.75c.33.49,37.54,51.76,37.54,51.76h3.67V66.6c0-6.62,7.81-7.58,7.81-7.58V57.8h-20Z" transform="translate(36.51 40.2)"/><path class="cls-3" d="M365.66,109.81V74l-4.21-6v41.75c0,6.62-7.84,7.5-7.84,7.5v1.22h20v-1.22S365.66,116.66,365.66,109.81Z" transform="translate(36.51 40.2)"/><path class="cls-3" d="M392.7,57.81V59s8,.72,8,7.58V97.35L372.34,57.83h-19V59s5.37.45,10.34,7.75c.33.49,37.54,51.76,37.54,51.76h3.67V66.6c0-6.62,7.81-7.58,7.81-7.58V57.8h-20Z" transform="translate(36.51 40.2)"/><path class="cls-3" d="M238.25,57.82V59c1.15,0,7.81.72,7.81,7.58V99.05c0,6.74-3.18,17.4-14.08,17.4-12.57,0-15.12-9.84-15.12-15.22v-.06h0V66.59c0-7.9,7.2-7.57,7.2-7.57V57.8H198.43V59s7.2-.33,7.2,7.57v34.58h0V102c0,4.81,2,18.56,23.18,18.56,21,0,21.42-16.62,21.42-23.42V66.62c0-6.62,6.94-7.58,8-7.58V57.82h-20Z" transform="translate(36.51 40.2)"/><path class="cls-3" d="M459,102.77h-1.55a15.46,15.46,0,0,1-3.2,6.87c-2.49,2.77-6.16,4.6-11.33,4.6H432.65V88.17h4.8c2.19,0,7.81.14,9.74,1.65a7.74,7.74,0,0,1,3,5.12h.92V76.75h-.92a7.67,7.67,0,0,1-3,5.27c-1.76,1.32-7.54,1.45-9.74,1.45h-4.8V61.69H439c3.19,0,9.89-.2,12.85,2,3.66,2.7,3.84,5.81,3.84,5.81h.9V57.82H416.37V59s6.58-.37,6.58,7.44v43.35c0,7.82-6.58,7.49-6.58,7.49v1.21H456.1Z" transform="translate(36.51 40.2)"/><path class="cls-3" d="M487.67,81.83c-4.6-1.71-15.9-3.65-15.9-12.43,0-6.59,6.23-10.35,11.7-10.35a15.26,15.26,0,0,1,12.16,5.57A21,21,0,0,1,499.52,72h1.09l-.07-14.28h-1.1a3.31,3.31,0,0,1-2.68,1.17c-3.26,0-4.4-3.18-13.69-3.18s-18.51,8.22-18.51,18.45,9.42,15.1,17.27,17.71c8.59,2.85,15.23,6.46,15.23,13s-4.9,10.29-11.44,10.29-10.19-2.46-14-6.81a23.89,23.89,0,0,1-4.91-10.42h-1.38v20.54h1.34a4.28,4.28,0,0,1,3.45-2.36c3.82-.28,7.76,3.17,15.59,3.17,8.26,0,18.47-6.06,18.47-18.58S492.83,83.76,487.67,81.83Z" transform="translate(36.51 40.2)"/><path class="cls-3" d="M531.64,81.83c-4.6-1.71-15.9-3.65-15.9-12.43,0-6.59,6.22-10.35,11.7-10.35a15.26,15.26,0,0,1,12.16,5.57A21,21,0,0,1,543.49,72h1.09l-.08-14.28h-1.09a3.31,3.31,0,0,1-2.68,1.17c-3.26,0-4.4-3.18-13.69-3.18s-18.48,8.21-18.48,18.42,9.41,15.1,17.26,17.71c8.59,2.85,15.23,6.46,15.23,13s-4.92,10.32-11.46,10.32-10.19-2.46-14-6.81a23.89,23.89,0,0,1-4.91-10.42H509.3v20.54h1.34a4.28,4.28,0,0,1,3.45-2.36c3.82-.28,7.76,3.17,15.59,3.17,8.26,0,18.47-6.06,18.47-18.58S536.8,83.76,531.64,81.83Z" transform="translate(36.51 40.2)"/><path class="cls-3" d="M171.58,84.11v1.2s7.09-.32,7.09,7.45v16.16a6.46,6.46,0,0,1,0,.88v1.9a30.48,30.48,0,0,1-15,3.84c-5,0-20.87-1.12-20.87-33s18.08-33.61,21.09-33.93c1.8-.19,9.68-.37,15.79,4.87S186.86,67,186.86,67h1.84V47.25h-1a4.83,4.83,0,0,1-3.92,1.52c-3.55,0-9.28-4.6-19.69-4.27-21.13.69-36,16.51-36,39.61,0,22.49,17.65,35.93,35.08,35.93a60,60,0,0,0,7.22-.43h.11c1.08-.19,2.25-.26,3.5-.55h.3c1.54-.3,3-.64,4.28-1,3.29-.58,7.83-.92,11.41.83v-10.4h0v-1.32h0V92.76c0-7.77,7.09-7.45,7.09-7.45v-1.2Z" transform="translate(36.51 40.2)"/><path class="cls-4" d="M107.47,21.32c-7,6.61-23.1,12.85-51.11,2.93S21.13,30.18,21.13,35.92c0,3.06,1,10.36,10.65,10.36,6.13,0,9.64-5.64,9.64-8.91s-2.62-7.44-2.62-7.44c6.35,0,7.69,0,26.66,8.86,12,5.45,32.87,15.4,50.22-1.59C112.2,27,107.47,21.32,107.47,21.32ZM31.78,40.88a3.52,3.52,0,1,1,3.52-3.52h0A3.52,3.52,0,0,1,31.78,40.88Z" transform="translate(36.51 40.2)"/><path class="cls-4" d="M108.37,42.72c5.5,42-12.67,64.6-21.2,76-6.78,8.82-7.26,12.73-4.85,16.52-8.87,3.82-16.73,1.76-19.73,1.11a21,21,0,0,1-2.73-5.58c4.73-3.5,12.86-10.63,21.19-24.31,18.5-26.69,15.64-57.4,15.59-60.06A32.93,32.93,0,0,0,108.37,42.72Z" transform="translate(36.51 40.2)"/><path class="cls-4" d="M95.4,46l-23.87,54.4c.23.35.47.68.72,1l.13.06L96.79,45.86A12.87,12.87,0,0,1,95.4,46Z" transform="translate(36.51 40.2)"/><path class="cls-4" d="M68.73,95.67c.23.45.48.9.73,1.35L91.81,46.08,90.51,46Z" transform="translate(36.51 40.2)"/><path class="cls-4" d="M66.16,90.38l.68,1.47L87.12,45.64l-1.24-.21Z" transform="translate(36.51 40.2)"/><path class="cls-4" d="M63.61,85.06l.68,1.46L82.63,44.73l-1.19-.31Z" transform="translate(36.51 40.2)"/><path class="cls-4" d="M61.12,79.59l.67,1.49L78.3,43.46l-1.15-.39Z" transform="translate(36.51 40.2)"/><path class="cls-4" d="M58.65,74.06l.67,1.5L74.09,41.91,73,41.47Z" transform="translate(36.51 40.2)"/><path class="cls-4" d="M56.2,68.51,56.86,70,70,40.17l-1.11-.49Z" transform="translate(36.51 40.2)"/><path class="cls-4" d="M64.77,37.84l-11,25.09.66,1.52L65.88,38.36l-.17-.08Z" transform="translate(36.51 40.2)"/><path class="cls-4" d="M51.33,57.34,52,58.86l9.83-22.39L60.72,36Z" transform="translate(36.51 40.2)"/><path class="cls-4" d="M48.9,51.73l.66,1.52L57.74,34.6l-1.11-.5Z" transform="translate(36.51 40.2)"/><path class="cls-4" d="M46.47,46.17l.66,1.52,6.51-14.84-1.12-.47Z" transform="translate(36.51 40.2)"/><path class="cls-4" d="M38.81,29.92c1.32.66,3.48,1.38,6.39,7.64,0,0,18.5,41.57,22.73,50.3,0,0,6.67,15.59,13.12,18.65-11.67,19.16-23,25.47-25,27a.36.36,0,0,1-.59-.18c-8.13-18.66-14.24-50.88-22.68-83.67-.84-3.25-2-3.37-2.75-3.43C30,46.17,45.45,45.48,38.81,29.92Z" transform="translate(36.51 40.2)"/><g class="cls-5"><path class="cls-6" d="M96.32,38.51a25.29,25.29,0,0,1,2.81,1.12c.92.41,1.83.81,2.77,1.13a9.05,9.05,0,0,0,2.87.53,10.15,10.15,0,0,0,2.89-.51c1-.29,1.88-.66,2.81-1s1.73-.69,2.63-1c.84-.85,1.32-1.4,1.32-1.4v-.1l-.93.27c-.94.31-1.87.68-2.81,1s-1.88.73-2.85,1a10.91,10.91,0,0,1-3,.51,9.61,9.61,0,0,1-3-.57A29.31,29.31,0,0,1,99,38.33l-1.15-.51.49-.23.83.36c.92.41,1.83.81,2.77,1.13a9.05,9.05,0,0,0,2.87.53,10.15,10.15,0,0,0,2.89-.51c1-.29,1.88-.66,2.81-1s1.86-.75,2.83-1.07l.92-.27-.36-1-.4.12c-.94.31-1.87.68-2.81,1s-1.88.73-2.85,1a10.91,10.91,0,0,1-3,.51,9.61,9.61,0,0,1-3-.57c-.77-.26-1.51-.58-2.24-.91l.44-.26c.64.28,1.28.54,1.93.76a9.05,9.05,0,0,0,2.87.53,10.15,10.15,0,0,0,2.89-.51c.95-.29,1.88-.66,2.81-1s1.86-.75,2.83-1.07l.39-.12-.38-1c-.89.3-1.77.64-2.66,1a27.31,27.31,0,0,1-2.85,1,10.91,10.91,0,0,1-3,.51,9.61,9.61,0,0,1-3-.57l-.71-.26.41-.3.44.16a9.05,9.05,0,0,0,2.87.53,10.15,10.15,0,0,0,2.89-.51c1-.29,1.88-.66,2.81-1s1.75-.7,2.66-1l-.39-1c-.7.25-1.39.52-2.09.79a28.28,28.28,0,0,1-2.85,1,10.91,10.91,0,0,1-3,.51,8.53,8.53,0,0,1-2.29-.35l.38-.35a7.76,7.76,0,0,0,1.91.25,10.15,10.15,0,0,0,2.89-.51c1-.29,1.88-.66,2.81-1l2.08-.8-.41-1-1.49.57c-.93.36-1.88.73-2.85,1a10.91,10.91,0,0,1-3,.51,7.28,7.28,0,0,1-.93-.07l.36-.41H105a10.15,10.15,0,0,0,2.89-.51c1-.29,1.88-.66,2.81-1l1.47-.58-.43-.94-.87.34c-.93.36-1.88.73-2.85,1a11.2,11.2,0,0,1-2.69.5l.33-.47a11.2,11.2,0,0,0,2.23-.47c1-.29,1.88-.66,2.81-1l.84-.33-.45-.93-.21.08a28.28,28.28,0,0,1-2.85,1,14.52,14.52,0,0,1-1.58.38l.27-.52c.39-.08.78-.19,1.17-.31,1-.29,1.88-.66,2.81-1l.18-.07-.47-.92c-.78.3-1.57.59-2.37.84l-.7.19.22-.53.35-.1c.77-.24,1.53-.52,2.28-.82l-.51-.92c-.54.2-1.09.4-1.64.56h0c.06-.19.11-.37.16-.54l1.29-.45-.55-.93-.45.15v-.49l.16-.06c-.31-.49-.59-.89-.81-1.2-4.14,26.37-42.54,11.91-54.27,7.2-22.76-8.33-26.68,3.56-26.68,3.56A9.47,9.47,0,0,1,39,29.71c13.44,0,31.72,18.4,57.15,18.4,4.73,0,9.67-3.13,13.25-6l-.39.22-1,.34a10.91,10.91,0,0,1-3,.51,9.61,9.61,0,0,1-3-.57,29.31,29.31,0,0,1-2.8-1.16,27.65,27.65,0,0,0-2.77-1.12,7.48,7.48,0,0,0-2.89-.41,12.53,12.53,0,0,0-2.89.62c-1,.31-1.88.68-2.81,1s-1.88.73-2.84,1a10.54,10.54,0,0,1-3,.51,9.33,9.33,0,0,1-3-.57,28.08,28.08,0,0,1-2.79-1.16,25.53,25.53,0,0,0-2.77-1.13,7.45,7.45,0,0,0-2.92-.41A9.29,9.29,0,0,0,69,40l-.31-.14a9.15,9.15,0,0,1,1.87-.32,7.81,7.81,0,0,1,3,.4,25.29,25.29,0,0,1,2.81,1.12c.92.41,1.83.81,2.77,1.13a9,9,0,0,0,2.9.54,10.28,10.28,0,0,0,2.91-.51c1-.29,1.88-.66,2.81-1s1.86-.75,2.82-1.07a12.88,12.88,0,0,1,3-.66,7.82,7.82,0,0,1,3,.41A25.29,25.29,0,0,1,99.38,41c.92.41,1.83.81,2.77,1.13a9.05,9.05,0,0,0,2.87.53,10.15,10.15,0,0,0,2.89-.51c.84-.26,1.66-.57,2.48-.9.8-.69,1.51-1.34,2.11-1.92l-1.61.62c-.93.36-1.88.73-2.85,1a10.91,10.91,0,0,1-3,.51,9.61,9.61,0,0,1-3-.57,29.31,29.31,0,0,1-2.8-1.16,27.65,27.65,0,0,0-2.77-1.12l-.61-.18.66-.22Zm-.32,8-.81.05a6.5,6.5,0,0,0-1.87-.1,8,8,0,0,0-1.09.17H91a11.26,11.26,0,0,1,2.29-.49,7.83,7.83,0,0,1,3,.35h.07Zm2.35-.33a20.87,20.87,0,0,0-2.15-.85,7.48,7.48,0,0,0-2.89-.41,12.53,12.53,0,0,0-2.89.62c-.74.24-1.47.52-2.2.8h-.34l-.35-.05c.91-.36,1.83-.73,2.77-1a12.88,12.88,0,0,1,3-.66,7.82,7.82,0,0,1,3,.41,24.36,24.36,0,0,1,2.62,1Zm2.13-.68L99,44.87a27.65,27.65,0,0,0-2.77-1.12,7.3,7.3,0,0,0-2.89-.41,12.53,12.53,0,0,0-2.89.62c-1,.31-1.88.68-2.81,1s-1.61.62-2.43.89l-.64-.13h.14c1-.29,1.88-.66,2.81-1s1.86-.75,2.82-1.07a12.88,12.88,0,0,1,3-.66,7.82,7.82,0,0,1,3,.41,25.29,25.29,0,0,1,2.81,1.12c.65.29,1.3.58,2,.83Zm-27.2-3.82a25.29,25.29,0,0,1,2.81,1.12c.92.41,1.83.81,2.77,1.13a9,9,0,0,0,2.9.54A10.28,10.28,0,0,0,84.67,44c1-.29,1.88-.66,2.81-1s1.86-.75,2.82-1.07a12.88,12.88,0,0,1,3-.66,7.82,7.82,0,0,1,3,.41,27.4,27.4,0,0,1,2.81,1.12c.92.41,1.83.81,2.77,1.13a10.91,10.91,0,0,0,1.79.45l-.82.28a10.68,10.68,0,0,1-1.1-.33A29.31,29.31,0,0,1,99,43.13,27.65,27.65,0,0,0,96.18,42a7.48,7.48,0,0,0-2.89-.41,12.53,12.53,0,0,0-2.89.62c-1,.31-1.88.68-2.81,1s-1.88.73-2.84,1a10.54,10.54,0,0,1-3,.51,6.74,6.74,0,0,1-1-.08,10.62,10.62,0,0,1-2-.49c-.52-.18-1-.38-1.53-.6L76,43.07a27.72,27.72,0,0,0-2.77-1.13,10.23,10.23,0,0,0-1.35-.33l-.78-.32a9.28,9.28,0,0,1,2.22.43Zm5.58-2.51h0a9,9,0,0,0,2.9.54,8.82,8.82,0,0,0,1.36-.13l1.13.06a9.47,9.47,0,0,1-2.48.36,9.33,9.33,0,0,1-3-.57c-.37-.13-.74-.27-1.1-.42Zm-20.11-4.1a9.59,9.59,0,0,1-1.68-.18l-.7-.31h0a10.41,10.41,0,0,0,2.36.33h0a8.65,8.65,0,0,0,2.15-.3h0l.22.08h.09a9.43,9.43,0,0,1-2.42.35h0Zm1.84,1.41h0l-.24-.11h0A12.92,12.92,0,0,0,61.71,36c.48-.15,1-.33,1.61-.56h.27c-.73.28-1.3.47-1.83.63s-.8.35-1.17.43Zm2.14,1h-.06l-.22-.1h.06c.67-.23,1.33-.49,2-.76l1-.41h.1l.2.06h0l-1.12.43-.15.06c-.58.23-1.2.47-1.82.68h0Zm2,.91h0l-.23-.11h.07l.24-.1c.84-.33,1.71-.68,2.58-1l.72-.22h0l.36.1h0c-.33.09-.67.19-1,.31-.89.29-1.7.6-2.55.94Zm22.93,1.78a30,30,0,0,1-2.84,1,10.54,10.54,0,0,1-3,.51,9.61,9.61,0,0,1-3-.57A28.08,28.08,0,0,1,76,40a27.72,27.72,0,0,0-2.77-1.13,7.45,7.45,0,0,0-2.92-.41,12.58,12.58,0,0,0-2.91.62l-.89.31-.25-.12,1.08-.38a12.37,12.37,0,0,1,3-.65,7.63,7.63,0,0,1,3,.4,25.29,25.29,0,0,1,2.81,1.12c.92.41,1.83.81,2.77,1.13a9,9,0,0,0,2.9.54,10.28,10.28,0,0,0,2.91-.51c1-.29,1.88-.66,2.81-1l.15-.06h.93Z" transform="translate(36.51 40.2)"/></g><g class="cls-7"><path class="cls-6" d="M108.6,43.17c-.27.14-.4.19-.75.35.15,5.35-.74,5.41-5.1,6.78-5.5,1.86-5.14.3-6.55,13.59V45.26L108.59,42v1.16Z" transform="translate(36.51 40.2)"/><path class="cls-6" d="M61.71,133.27c1-.29,1.89-.66,2.82-1s1.86-.75,2.82-1.07a12.37,12.37,0,0,1,3-.65,5.57,5.57,0,0,1,1,0c.23-.39.49-.82.81-1.29a6.5,6.5,0,0,0-1.76-.11,12.1,12.1,0,0,0-2.91.63c-1,.31-1.88.68-2.82,1s-1.87.73-2.84,1l-.29.09.24-.2.08-.06c.93-.29,1.84-.65,2.75-1s1.86-.75,2.82-1.07a12.37,12.37,0,0,1,3-.65,6.88,6.88,0,0,1,1.92.12c.25-.36.53-.75.85-1.16a7.32,7.32,0,0,0-2.75-.36,12.1,12.1,0,0,0-2.91.63c-.92.3-1.82.65-2.72,1l.43-.37c.73-.29,1.47-.58,2.23-.83a12.37,12.37,0,0,1,3-.65,7.81,7.81,0,0,1,2.92.38c.26-.33.54-.69.85-1.07-.28-.11-.55-.21-.84-.3a7.45,7.45,0,0,0-2.92-.41,11.49,11.49,0,0,0-2.39.47l.37-.32a10.37,10.37,0,0,1,2-.37,7.81,7.81,0,0,1,3,.4l.93.33.84-1c-.61-.26-1.22-.51-1.84-.72a7.7,7.7,0,0,0-2.9-.41l.27-.24a8.24,8.24,0,0,1,2.7.42,20,20,0,0,1,2,.74l.84-1h-.09A27.72,27.72,0,0,0,73.4,123a11.13,11.13,0,0,0-1.17-.3l.22-.19a8.68,8.68,0,0,1,1,.27,27.4,27.4,0,0,1,2.81,1.12l.16.07.86-1-1.13-.5a18.72,18.72,0,0,0-2.53-1l.21-.18c.83.29,1.63.64,2.42,1l1.21.53.89-1c-.75-.29-1.48-.62-2.21-.94l-1.25-.55.07-.2,1.15.5c.76.34,1.53.68,2.31,1l.94-1-.56-.18A28.08,28.08,0,0,1,76,119.33h0l.21-.19c.89.4,1.78.79,2.7,1.1l.69.21,1-1.1a10.69,10.69,0,0,1-1.83-.47c-.55-.19-1.09-.41-1.62-.64l.22-.2c.49.21,1,.41,1.49.58a10.57,10.57,0,0,0,2,.47l1.22-1.27h-.3a9.33,9.33,0,0,1-3-.57l-.4-.15.23-.21.27.09a9,9,0,0,0,2.9.54h.62L84,115.87a9.56,9.56,0,0,1-2.13.27,8.32,8.32,0,0,1-2.1-.3l.24-.23a7.77,7.77,0,0,0,1.86.23,9.41,9.41,0,0,0,2.53-.4c.55-.59,1.13-1.2,1.72-1.85-.41.15-.83.29-1.25.42a10.54,10.54,0,0,1-3,.51c-.23,0-.47,0-.7,0l.27-.27h.43a10.28,10.28,0,0,0,2.91-.51c.61-.19,1.21-.41,1.81-.64.56-.62,1.12-1.26,1.7-1.93l-.58.22a28.1,28.1,0,0,1-2.84,1,12.35,12.35,0,0,1-2.09.45l.34-.35a13.37,13.37,0,0,0,1.66-.4c1-.29,1.88-.66,2.81-1l1.16-.46c.49-.58,1-1.18,1.49-1.8-.85.29-1.69.62-2.53,1s-1.87.73-2.84,1l-.21.06.41-.46c.85-.28,1.68-.6,2.52-.93s1.87-.75,2.82-1.07l.23-.07c.41-.52.83-1,1.24-1.6-.46.11-.91.24-1.36.38-1,.31-1.88.68-2.81,1l-1,.39.44-.52.46-.18c.93-.37,1.87-.75,2.82-1.07a16.11,16.11,0,0,1,1.81-.49c.35-.46.68-.93,1-1.4a12.83,12.83,0,0,0-2.73.61c-.62.2-1.24.43-1.86.67l.42-.53c.44-.17.88-.33,1.33-.48a12.88,12.88,0,0,1,3-.66h.14l.86-1.24a5.57,5.57,0,0,0-1,0,12.53,12.53,0,0,0-2.89.62h-.1l.37-.49a11.56,11.56,0,0,1,2.6-.54,6.53,6.53,0,0,1,1.25,0l.74-1.12a6.72,6.72,0,0,0-2-.16,10.59,10.59,0,0,0-1.48.23l.31-.44a8.93,8.93,0,0,1,1.14-.16,7.14,7.14,0,0,1,2.21.18l.66-1a7.44,7.44,0,0,0-2.85-.4h-.2l.27-.39a7.91,7.91,0,0,1,2.94.41h0l.6-1-.77-.28a8.57,8.57,0,0,0-2-.41l.23-.36a9.16,9.16,0,0,1,1.87.4c.29.09.58.2.86.3l.56-1c-.51-.21-1-.42-1.54-.59a8.68,8.68,0,0,0-1-.27l.22-.34a9.05,9.05,0,0,1,.93.25c.55.17,1.09.39,1.62.61l.53-1a23.28,23.28,0,0,0-2.27-.9h-.16l.21-.34h.07a21.6,21.6,0,0,1,2.35.92l.51-1L99,94.83c-.7-.31-1.41-.63-2.12-.9l.2-.35c.71.26,1.4.57,2.09.87l.23.1.49-1L99,93.37l-1.36-.6.2-.35,1.33.58.9.4.47-1c-.52-.22-1-.45-1.54-.67l-.64-.28.19-.36.61.27,1.55.67.46-1c-.72-.28-1.42-.59-2.11-.9l.19-.36c.7.31,1.39.61,2.09.88l.44-1a18.17,18.17,0,0,1-2-.83l.19-.37c.66.29,1.33.57,2,.79h0l.43-1-.59-.18c-.47-.16-.94-.35-1.39-.54l.18-.38q.66.28,1.35.51l.61.19.42-1.07c-.39-.09-.78-.21-1.17-.34l-.75-.28.18-.38.71.25a12.15,12.15,0,0,0,1.18.33l.4-1.1a10.37,10.37,0,0,1-1.72-.45h-.11l.17-.39h.08a10.53,10.53,0,0,0,1.74.43l.39-1.13a10.57,10.57,0,0,1-1.76-.36l.17-.4a8.66,8.66,0,0,0,1.73.33c.13-.38.25-.77.37-1.16a8.52,8.52,0,0,1-1.66-.24l.17-.41a7.51,7.51,0,0,0,1.63.21c.12-.39.24-.79.35-1.18h-.24a7.17,7.17,0,0,1-1.31-.12l.16-.42a7.43,7.43,0,0,0,1.15.09h.38q.16-.58.33-1.2h-.7c-.25,0-.49,0-.74,0l.15-.43h.58a7.37,7.37,0,0,0,.82,0l.3-1.21a8.32,8.32,0,0,1-1.12.08h-.17l.15-.44h0a7.33,7.33,0,0,0,1.24-.11c.09-.4.19-.8.28-1.21a8.87,8.87,0,0,1-1.14.14l.15-.46a8.1,8.1,0,0,0,1.1-.16c.09-.4.17-.8.25-1.21-.33.07-.66.12-1,.16l.14-.47a4.36,4.36,0,0,0,.93-.18c.08-.4.15-.8.22-1.21l-.8.16.13-.48.75-.17c.07-.4.13-.8.2-1.2l-.63.15.12-.5.58-.15c.06-.4.12-.79.17-1.2l-.45.12.12-.5.39-.11.15-1.18-.27.08.11-.51h.22a96.5,96.5,0,0,0,.46-14.72c-1.64,21-7.09,42.46-31.52,65.18,3.57-4.57,2.59-7,5.2-12,0,0-15,21.59-22.64,25.34l1,2.16c.19-.11.6-.44.71-.23s.28.53.61,1.08Z" transform="translate(36.51 40.2)"/><path class="cls-6" d="M70.32,130.74a12.1,12.1,0,0,0-2.91.63c-1,.31-1.88.68-2.82,1s-1.87.73-2.84,1h-.1c.23.37.49.78.78,1.19.7-.24,1.39-.51,2.08-.79.93-.37,1.86-.75,2.82-1.06a12.37,12.37,0,0,1,3-.65h.13c.21-.45.44-.9.71-1.4A6.11,6.11,0,0,0,70.32,130.74Z" transform="translate(36.51 40.2)"/><path class="cls-6" d="M67.35,134.42a14.78,14.78,0,0,1,2.27-.57c.27-.53.49-1,.71-1.48h0a12.58,12.58,0,0,0-2.91.62c-1,.31-1.88.68-2.82,1l-2,.76.11.14a7.92,7.92,0,0,0,2.31.38C65.75,135,66.54,134.69,67.35,134.42Z" transform="translate(36.51 40.2)"/><path class="cls-6" d="M67.42,134.61c-.65.21-1.3.45-1.94.7a10.68,10.68,0,0,0,3.4-.65,1.14,1.14,0,0,0,.62-.58A13.79,13.79,0,0,0,67.42,134.61Z" transform="translate(36.51 40.2)"/></g><path class="cls-6" d="M61.25,128a24.72,24.72,0,0,1-3.07,2.32c-1,.64-2.06,0-3.11-1.91-1.34-2.47-4.35-11.64-5.65-16.33,1,2,4.34,10.82,6.59,15.54.71,1.23,1.27,2.17,3.05,1.37Z" transform="translate(36.51 40.2)"/><path class="cls-6" d="M35.38,57.32c.2-4.25-2-6.93.91-8.47,1.85-1,2.06-1.85,2.06-1.85a14.1,14.1,0,0,0-1.58-4.21c-.14-.19-.24,0-.24,0A7.41,7.41,0,0,1,31,46.12C34,47,34.23,55.44,35.38,57.32Z" transform="translate(36.51 40.2)"/><path class="cls-6" d="M29.18,35a3.49,3.49,0,0,1,2.6-1.16h.4c.21,0,.43,0,.64,0a6.28,6.28,0,0,1,3.24.9,5,5,0,0,0-9.27,2.81c0,.24,0,.47,0,.71A6.31,6.31,0,0,1,29.18,35Z" transform="translate(36.51 40.2)"/><path class="cls-6" d="M36.66,35.48h0a5.22,5.22,0,0,1-2.93,6.72,5.81,5.81,0,0,0,2.93-1,.63.63,0,0,1,.83.28.88.88,0,0,1,0,.15c8.77,21.36,23.58,67.37,32.4,80l2.22-2.55C61,104.93,52.32,73.52,36.66,35.48Z" transform="translate(36.51 40.2)"/><g class="cls-8"><path class="cls-6" d="M73.77,100.66,75.7,99.5l-1.12-1.85-.68.41-1.53,3.48-.13-.06-.72-1,.83-1.89c-.6-.94-.88-1.39-1.44-2.37l2.57-1.55-1.42-2.38-.69.42-1.91,4.36c-.25-.46-.5-.91-.73-1.35l.84-1.91h0c-.4-.75-.79-1.49-1.15-2.21l-.25-.49L71,89.41l-1.44-2.5-.7.42-2,4.57-.68-1.47L67,88.6v-.1c-.47-1-.71-1.52-1.3-2.8L68.5,84l-1.41-2.47-.71.43-2,4.62-.68-1.46.84-1.92V83.1c-.5-1.08-.71-1.65-1.26-2.85l2.8-1.69-1.43-2.44-.72.44-2,4.57-.67-1.49.7-2h0c-.51-1.11-.77-1.77-1.3-2.94l2.74-1.66L62,70.68l-.73.44-2,4.45-.67-1.5.82-1.87c-.51-1.13-.82-1.85-1.35-3l2.68-1.62-1.32-2.27-.74.45L56.77,70l-.66-1.51.79-1.81c-.5-1.12-.83-1.92-1.34-3l2.62-1.58L56.88,60l-.75.46-1.8,4.09L53.67,63l.76-1.73c-.5-1.11-.89-2-1.37-3.11l2.54-1.54-1.23-2-.77.46L52,58.86l-.66-1.52L52,55.69l-1.45-3.24L53,51,52,49.11l-.78.47-1.61,3.68-.66-1.52.68-1.56L48.17,47l2.38-1.44-1.12-1.85-.79.48-1.52,3.46-.65-1.49.65-1.47-3.57-8c-3.56-8-9.07-7-11.11-6.48C35.25,30,39,30.6,41.24,36c2.47,6,22.18,54.73,26.28,62,3.07,5.46,6.72,11.22,13.53,8.53C78.68,106.46,76.13,104,73.77,100.66Z" transform="translate(36.51 40.2)"/></g><path class="cls-6" d="M49,95.68a.51.51,0,0,1,.31-.65.5.5,0,0,1,.65.31.5.5,0,0,1-.31.65h0A.52.52,0,0,1,49,95.68Zm10.82,22a1.25,1.25,0,0,1,1.65.64v0a1.14,1.14,0,0,1-.79,1.4l-.07,0a1.24,1.24,0,0,1-1.59-.55,1.15,1.15,0,0,1,.59-1.5l.23-.07Zm-.56-1.23a2.22,2.22,0,0,0-1.44,2.74,1.33,1.33,0,0,0,.69.86l.09.06h0a5.81,5.81,0,0,1-1.18-.5,3.45,3.45,0,0,1-1.54-1.46V118a.16.16,0,0,0-.11-.13.17.17,0,0,0-.15,0l-.45.38-.16.13a.15.15,0,0,0,0,.16,1,1,0,0,0,.11.17,6.35,6.35,0,0,0,3.13,2.42,4.25,4.25,0,0,0,2.66-.11,2.34,2.34,0,0,0,1.74-2.81,1.49,1.49,0,0,0-.09-.3,2.53,2.53,0,0,0-3.21-1.57l-.06,0Zm.26-6.52,1.14,3.18a.15.15,0,0,1,0,.16.17.17,0,0,1-.14.06h-.82a.25.25,0,0,1-.27-.15l-.74-2.08H58.5l-1.31.33h0a1.75,1.75,0,0,1,.7,1.06,2.22,2.22,0,0,1-1.46,2.72,2.7,2.7,0,0,1-1.9,0,2.32,2.32,0,0,1-1.33-1.38,2.69,2.69,0,0,1,0-2.35.2.2,0,0,1,.23-.15h.15l.85.31a.12.12,0,0,1,.09.08.15.15,0,0,1-.06.16h0a1.29,1.29,0,0,0-.16,1.36,1.23,1.23,0,0,0,1.58.76L56,114a1.12,1.12,0,0,0,.73-1.37,1.14,1.14,0,0,0-.77-.77h0a.19.19,0,0,1-.14-.12h0l-.14-.44-.11-.34a.17.17,0,0,1,0-.14.2.2,0,0,1,.12-.08l3.64-1a.22.22,0,0,1,.17.19Zm-3.27-6.31.71-.18a.22.22,0,0,1,.28.12l1.27,3.56a.17.17,0,0,1-.07.24h0l-1,.35h0s-1.65-.46-3-.68a7,7,0,0,0-3.16.15.16.16,0,0,1-.23,0l0,0-.43-1.21a.17.17,0,0,1,0-.14.19.19,0,0,1,.14-.09,8.5,8.5,0,0,1,3.55.12,16,16,0,0,1,2.55.7l.16.06h0L56,103.92a.28.28,0,0,1,0-.18.21.21,0,0,1,.14-.1h0Zm-.77-4.22.09.1.59.7v0a.22.22,0,0,1-.14.19l-6.32,2.26a.2.2,0,0,1-.27-.09s0,0,0,0l-.31-.87a.18.18,0,0,1,.11-.24h0l6-2.12a.21.21,0,0,1,.27,0Zm-4.25-4.23-.25-.7,2.18-.78h0l.24.66a1.31,1.31,0,0,1-2.17.82Zm2.18-2.39-3.16,1.13a.11.11,0,0,0-.06.14h0l.52,1.46A1.81,1.81,0,0,0,54,94.17l-.45-1.26a.1.1,0,0,0-.11-.1h0Zm-2.18-4.57h.52a.16.16,0,0,1,.2.12L52.85,91a.15.15,0,0,1-.07.19l-.09.06-.41.25a.11.11,0,0,1-.11,0,.16.16,0,0,1-.07-.09l-.39-1.08h0L48,91.61h0a.11.11,0,0,1-.15,0s0,0,0,0l-.25-.71a.1.1,0,0,1,.06-.14h0l3.77-1.34h0l-.14-.39-.2-.56a.11.11,0,0,1,0-.08.21.21,0,0,1,.13,0h0Zm-.16-3a1.73,1.73,0,0,1-.13,1.37h0a.14.14,0,0,1-.17,0h0l-.61-.19h0a.15.15,0,0,1-.11-.08.11.11,0,0,1,0-.11h0a.61.61,0,0,0,.19-.7.64.64,0,0,0-.78-.48h0a.77.77,0,0,0-.35.82v.36a1.51,1.51,0,0,1-1,1.55,1.69,1.69,0,0,1-2.16-1s0,0,0-.06a1.48,1.48,0,0,1,.17-1.74.15.15,0,0,1,.2-.06l.59.28h0a.13.13,0,0,1,0,.12h0a1,1,0,0,0-.18,1,.7.7,0,0,0,.86.49l.09,0c.44-.16.48-.38.53-1.13h0a1.41,1.41,0,0,1,1-1.59A1.57,1.57,0,0,1,51,85.22v0Zm-6.94-4.48,4.46-1.59a.14.14,0,0,1,.18.08l.82,2.29a.06.06,0,0,1,0,.08.16.16,0,0,1-.11,0h-.08l-.49.06a.21.21,0,0,1-.19-.13l-.48-1.34h-.07l-1,.37h0l.48,1.34a.11.11,0,0,1-.07.14h0l-.5.18a.11.11,0,0,1-.14-.06v0l-.47-1.32h0l-1.35.48h0l.54,1.51a.11.11,0,0,1,0,.15h0l-.44.26a.13.13,0,0,1-.12,0A.09.09,0,0,1,45,83.2l-1-2.26a.12.12,0,0,1,.07-.15h.06Z" transform="translate(36.51 40.2)"/><path class="cls-9" d="M65.08,107.86c8-3.89,10.5.62,14.54,1.17" transform="translate(36.51 40.2)"/><path class="cls-9" d="M65.67,109.23c6.86-3.33,10.06.5,13,1.24" transform="translate(36.51 40.2)"/><path class="cls-10" d="M66.42,110.61c5.87-3,9.8.87,11.45,1.1" transform="translate(36.51 40.2)"/><path class="cls-10" d="M67.19,111.88c5.15-2,8.46.84,9.76,1.1" transform="translate(36.51 40.2)"/><path class="cls-10" d="M68,113.29c1-.36,3.63-1.33,8.08.94" transform="translate(36.51 40.2)"/><path class="cls-10" d="M68.82,114.62c1-.2,2.88-.74,6.34.84" transform="translate(36.51 40.2)"/><path class="cls-11" d="M69.7,116.07a8.16,8.16,0,0,1,4.52.66" transform="translate(36.51 40.2)"/><path class="cls-11" d="M70.74,117.66a6.2,6.2,0,0,1,2.53.33" transform="translate(36.51 40.2)"/><path class="cls-12" d="M64.41,106.47s5.36-2.58,8.34-1.62" transform="translate(36.51 40.2)"/><path class="cls-11" d="M78,106.91a15.38,15.38,0,0,0,2.55.8" transform="translate(36.51 40.2)"/><path class="cls-12" d="M63.7,105.09c.94-.38,5.51-2.24,7.32-2.11" transform="translate(36.51 40.2)"/><path class="cls-13" d="M63.1,103.69c.81-.31,5.52-2.25,6.73-2.22" transform="translate(36.51 40.2)"/><path class="cls-13" d="M62.47,102.31c.84-.34,5.47-2.21,6.51-2.27" transform="translate(36.51 40.2)"/><path class="cls-13" d="M61.79,100.9c.85-.21,5.88-2.29,6.31-2.26" transform="translate(36.51 40.2)"/><path class="cls-14" d="M61.18,99.43c1-.13,5.26-1.93,6.11-2.18" transform="translate(36.51 40.2)"/><path class="cls-14" d="M60.58,97.92c1.21-.11,5.35-1.87,6-2.08" transform="translate(36.51 40.2)"/><path class="cls-14" d="M60,96.41c1.71-.11,5.47-1.77,6.17-2" transform="translate(36.51 40.2)"/><path class="cls-14" d="M59.25,94.77c1.7.22,5.7-1.56,6.06-1.68" transform="translate(36.51 40.2)"/><path class="cls-14" d="M58.67,93.17c2,.26,5.53-1.33,6-1.5" transform="translate(36.51 40.2)"/><path class="cls-14" d="M58.07,91.6a14,14,0,0,0,6-1.24" transform="translate(36.51 40.2)"/><path class="cls-14" d="M57.35,89.87c2.42.59,5.59-.75,6.09-.91" transform="translate(36.51 40.2)"/><path class="cls-15" d="M56.68,88.07a9.5,9.5,0,0,0,6.15-.54" transform="translate(36.51 40.2)"/><path class="cls-15" d="M55.88,86.17a8.17,8.17,0,0,0,6.31-.07" transform="translate(36.51 40.2)"/><path class="cls-15" d="M55.26,84.36a9.2,9.2,0,0,0,6.33.31" transform="translate(36.51 40.2)"/><path class="cls-15" d="M54.56,82.45C56,83,58.42,84,61,83.19" transform="translate(36.51 40.2)"/><path class="cls-15" d="M53.82,80.52c1.1.43,3.9,1.79,6.49,1.22" transform="translate(36.51 40.2)"/><path class="cls-15" d="M53.07,78.54c1.17.49,4.17,2,6.62,1.67" transform="translate(36.51 40.2)"/><path class="cls-15" d="M52.32,76.59c1.46.62,4.48,2.22,6.72,2" transform="translate(36.51 40.2)"/><path class="cls-15" d="M51.57,74.66c1.35.56,5.64,2.57,6.75,2.23" transform="translate(36.51 40.2)"/><path class="cls-15" d="M50.83,72.74c1.22.46,5.7,2.58,6.74,2.48" transform="translate(36.51 40.2)"/><path class="cls-16" d="M50.08,71c1.38.17,5.53,2.36,6.82,2.52" transform="translate(36.51 40.2)"/><path class="cls-16" d="M49.66,69.17c1.38.17,5.53,2.36,6.82,2.52" transform="translate(36.51 40.2)"/><path class="cls-16" d="M48.86,67.39c1.83,0,5.53,2.19,6.82,2.35" transform="translate(36.51 40.2)"/><path class="cls-16" d="M48.32,65.66c1.83,0,5.57,2.09,6.87,2.23" transform="translate(36.51 40.2)"/><path class="cls-16" d="M47.66,64.06c1.61-.41,5.06,1.46,6,1.71" transform="translate(36.51 40.2)"/><path class="cls-17" d="M49.68,56.17a9,9,0,0,0-4.82.4" transform="translate(36.51 40.2)"/><path class="cls-17" d="M48.88,54.38a9.18,9.18,0,0,0-4.6.69" transform="translate(36.51 40.2)"/><path class="cls-18" d="M45.31,58a7.28,7.28,0,0,1,5.08,0" transform="translate(36.51 40.2)"/><path class="cls-18" d="M51.24,59.87a7.49,7.49,0,0,0-5.37-.36" transform="translate(36.51 40.2)"/><path class="cls-16" d="M46.34,61a7.85,7.85,0,0,1,5.62.76" transform="translate(36.51 40.2)"/><path class="cls-16" d="M47.11,62.53s2-.6,5.73,1.25" transform="translate(36.51 40.2)"/><path class="cls-17" d="M43.72,53.62a12.3,12.3,0,0,1,4.55-.94" transform="translate(36.51 40.2)"/><path class="cls-17" d="M43.13,52.17a16.3,16.3,0,0,1,4.51-1.12" transform="translate(36.51 40.2)"/><path class="cls-17" d="M42.62,50.78A19.19,19.19,0,0,1,47,49.52" transform="translate(36.51 40.2)"/><path class="cls-17" d="M42.05,49.38A24.13,24.13,0,0,1,46.35,48" transform="translate(36.51 40.2)"/><path class="cls-17" d="M41.49,48a36.69,36.69,0,0,1,4.21-1.45" transform="translate(36.51 40.2)"/><path class="cls-17" d="M41,46.59a35.59,35.59,0,0,1,4.23-1.53" transform="translate(36.51 40.2)"/><path class="cls-17" d="M40.4,45.17S43.27,44,44.63,43.6" transform="translate(36.51 40.2)"/><path class="cls-17" d="M39.86,43.75s2.92-1.15,4.08-1.56" transform="translate(36.51 40.2)"/></g></svg>