<?xml version="1.0" encoding="utf-8"?>
<!-- Generator: Adobe Illustrator 16.0.4, SVG Export Plug-In . SVG Version: 6.00 Build 0)  -->
<!DOCTYPE svg PUBLIC "-//W3C//DTD SVG 1.1//EN" "http://www.w3.org/Graphics/SVG/1.1/DTD/svg11.dtd">
<svg version="1.1" id="Layer_1" xmlns="http://www.w3.org/2000/svg" xmlns:xlink="http://www.w3.org/1999/xlink" x="0px" y="0px"
	 width="1000px" height="1000px" viewBox="0 0 1000 1000" enable-background="new 0 0 1000 1000" xml:space="preserve">
<g>
	<path fill="#004B85" d="M521.955,516.163c100.706-48.971,152.864-145.59,116.496-215.794
		c-36.368-70.2-147.507-87.419-248.219-38.444c-100.706,48.973-152.866,145.586-116.49,215.791
		C310.111,547.919,421.241,565.136,521.955,516.163L521.955,516.163z"/>
	<path fill="#004B85" d="M159.673,184.115c0,0,119.156-145.235,338.162-152.363c0,0-42.639,97.397-9.984,167.539
		c0,0-100.755,16.397-193.553,85.005C294.298,284.296,251.579,199.683,159.673,184.115L159.673,184.115z"/>
	<path fill="#004B85" d="M518.542,193.596c0,0-0.433-37.571,73.648-77.631c0,0-20.295-67.69-42.32-82.819
		c16.568-2.957,158.085,24.017,193.871,138.418c0,0,41.039-63.856,20.94-109.65c0,0,127.175,62.885,60.635,214.524
		C825.315,276.439,741.374,160.435,518.542,193.596L518.542,193.596z"/>
	<path fill="#004B85" d="M836.261,290.911c0,0,83.194-67.867,85.381-137.921c0,0,50.356,56.919-6.566,214.542
		c0,0,65.684-52.543,70.056-59.105c0,0,63.559,164.217-190.388,289.008C794.743,597.435,926.1,427.378,836.261,290.911
		L836.261,290.911z"/>
	<path fill="#004B85" d="M592.819,757.282c0,0,60.037,36.769,149.074,4.293c0,0,67.766-26.771,127.599,3.342
		c0,0-3.743-140.88,130.508-160.244c0,0-86.528-54.493-255.834,51.179C744.166,655.852,693.494,711.481,592.819,757.282
		L592.819,757.282z"/>
	<path fill="#004B85" d="M127.371,222.353c0,0-7.214,61.232,25.301,92.222c0,0,60.76-31.481,117.467-11.184
		c0,0-122.999,92.06-153.08,233.646C117.058,537.037-23.535,415.63,127.371,222.353L127.371,222.353z"/>
	<path fill="#004B85" d="M113.677,554.816c0,0-30.337,119.437,81.372,200.948c0,0-92.153,54.005-195.049-94.86
		c0,0,26.266,10.946,70.053,6.562c0,0-78.811-48.163-67.873-194.834C2.18,472.632,45.808,550.436,113.677,554.816L113.677,554.816z"
		/>
	<path fill="#004B85" d="M516.104,550.082c8.941-2.929,45.057-21.451,56.782-30.054c11.929,24.207,50.011,113.213,11.881,210.03
		c0,0-218.488,108.389-365.088,7.722c-130.028-89.288-72.323-238.079-31.666-298.283c0,0,15.579,179.806,79.062,210.453
		c0,0,35.029-10.95,35.029-76.625c0,0,87.57,142.295,221.116,129.16C523.221,702.486,556.758,638.309,516.104,550.082
		L516.104,550.082z"/>
	<path fill="#004B85" d="M633.095,704.747c0,0,84.579-145.516,43.359-278.098c0,0,61.303,37.215,72.241,26.268
		c0,0,35.039-159.81-67.861-227.68c0,0,253.279,47.917,119.382,310.039C800.216,535.275,760.906,627.3,633.095,704.747
		L633.095,704.747z"/>
	<path fill="#004B85" d="M50.74,942.373c1.657-0.055,3.073-0.165,4.246-0.33c1.172-0.165,2.139-0.385,2.898-0.66
		s1.553-0.637,2.382-1.077c1.518-0.889,2.727-2.045,3.623-3.483c0.896-1.432,1.347-2.98,1.347-4.64c0-2.096-0.69-3.782-2.07-5.048
		c-1.38-1.274-4.073-2.571-8.076-3.893l-13.668-4.969c-7.179-2.76-12.253-5.552-15.222-8.367s-4.453-6.212-4.453-10.191
		c0-1.101,0.138-2.54,0.415-4.305c0.275-1.766,0.69-3.672,1.242-5.717c0.55-2.041,1.138-4.113,1.759-6.212
		c0.622-2.096,1.347-4.14,2.176-6.129c1.931-4.529,4.311-8.391,7.142-11.595c2.831-3.205,5.972-5.524,9.424-6.959
		c2.347-1.105,4.832-1.82,7.454-2.151c2.623-0.33,6.627-0.499,12.012-0.499h51.98l-3.314,12.243
		c-0.552,1.875-1.104,3.393-1.657,4.549c-0.552,1.16-1.278,2.044-2.174,2.65c-0.896,0.605-2.037,1.019-3.417,1.239
		c-1.38,0.22-3.106,0.33-5.176,0.33H82.011c-3.727,0-6.454,0.083-8.18,0.248s-3.21,0.527-4.453,1.077
		c-3.865,1.549-5.797,4.419-5.797,8.615c0,1.765,0.551,3.149,1.655,4.14c1.105,0.999,3.383,2.1,6.835,3.314l13.46,4.97
		c4.28,1.545,7.559,2.874,9.837,3.975c2.277,1.109,4.107,2.209,5.489,3.314c3.728,2.984,5.591,7.01,5.591,12.09
		c0,2.654-0.381,5.693-1.14,9.113c-0.759,3.425-1.795,6.85-3.106,10.27c-1.311,3.429-2.76,6.656-4.349,9.692
		c-1.588,3.039-3.21,5.438-4.865,7.206c-1.935,2.21-3.971,4.034-6.11,5.465c-2.141,1.439-4.488,2.596-7.042,3.48
		c-2.556,0.884-5.489,1.521-8.801,1.906c-3.314,0.386-7.179,0.578-11.597,0.578H18.436c-3.039,0-5.317-0.059-6.835-0.177
		s-2.829-0.35-3.934-0.704c-3.865-1.101-5.799-3.134-5.799-6.105c0-0.551,0.173-1.569,0.517-3.055
		c0.348-1.486,0.658-2.67,0.934-3.551l4.97-17.189h5.799c0,2.76,1,4.557,3.001,5.387c2.001,0.825,5.971,1.238,11.907,1.238h15.532
		C47.013,942.456,49.083,942.429,50.74,942.373z"/>
	<path fill="#004B85" d="M196.976,878.165c-2.485,0-4.626,0.169-6.421,0.5c-1.794,0.33-3.348,0.881-4.659,1.655
		c-1.312,0.774-2.45,1.824-3.417,3.149c-0.967,1.325-1.933,3.035-2.9,5.135c-1.105,2.543-2.518,6.298-4.244,11.272
		s-3.35,10.329-4.868,16.077c-1.242,4.639-2.141,8.312-2.693,11.021c-0.553,2.708-0.828,4.832-0.828,6.381
		c0,2.54,0.69,4.639,2.07,6.298s3.314,2.761,5.799,3.311c1.105,0.225,2.381,0.362,3.832,0.417c1.449,0.055,3.692,0.083,6.731,0.083
		h13.875c5.522,0,9.354-0.413,11.492-1.243c2.139-0.829,3.763-2.622,4.867-5.382h5.591l-4.969,17.527
		c-0.692,2.532-1.52,4.545-2.485,6.031c-0.967,1.486-2.001,2.665-3.106,3.546c-1.243,0.885-2.589,1.573-4.038,2.068
		c-1.451,0.495-3.556,0.854-6.316,1.073c-2.762,0.221-6.387,0.386-10.873,0.495c-4.488,0.11-10.458,0.166-17.913,0.166
		c-6.214,0-11.425-0.083-15.636-0.248s-7.836-0.417-10.873-0.747s-5.558-0.771-7.559-1.321c-2.001-0.55-3.832-1.27-5.487-2.154
		c-7.455-3.861-11.182-10.596-11.182-20.201c0-3.421,0.413-7.423,1.242-12.003c0.828-4.581,2.139-10.349,3.934-17.304
		c3.038-11.701,6.11-21.274,9.216-28.725c3.106-7.45,6.66-13.328,10.665-17.633c4.002-4.305,8.766-7.258,14.29-8.858
		c5.522-1.6,12.218-2.402,20.087-2.402h53.43l-3.727,13.246c-0.553,1.872-1.105,3.389-1.657,4.553
		c-0.553,1.156-1.312,2.041-2.278,2.646c-0.967,0.61-2.174,1.022-3.623,1.243c-1.451,0.22-3.279,0.33-5.489,0.33H196.976z"/>
	<path fill="#004B85" d="M363.301,883.154c0,4.966-0.794,10.899-2.383,17.795c-1.588,6.9-3.762,14.319-6.522,22.269
		c-3.177,8.941-6.662,16.309-10.458,22.1c-3.798,5.795-8.457,10.376-13.979,13.741s-12.149,5.74-19.88,7.12
		s-17.188,2.068-28.369,2.068c-8.976,0-16.362-0.444-22.161-1.325c-5.799-0.881-10.629-2.261-14.494-4.136
		c-8.836-4.42-13.253-11.591-13.253-21.522c0-4.859,0.55-10.293,1.655-16.309c1.104-6.016,2.623-12.031,4.557-18.046
		c1.933-6.016,4.142-11.779,6.627-17.299s5.107-10.262,7.869-14.241c2.623-3.75,5.729-6.951,9.318-9.601
		c3.589-2.65,7.833-4.801,12.736-6.456c4.901-1.655,10.527-2.87,16.879-3.641c6.35-0.771,13.598-1.16,21.744-1.16
		c9.112,0,16.843,0.523,23.193,1.573s11.528,2.705,15.532,4.966c4.002,2.265,6.902,5.217,8.697,8.858
		C362.403,873.553,363.301,877.965,363.301,883.154z M306.974,877.914c-4.834,0-8.734,1.38-11.703,4.132
		c-2.969,2.752-5.833,7.714-8.593,14.874c-3.314,8.375-5.868,15.864-7.663,22.477c-1.794,6.613-2.691,11.787-2.691,15.534
		c0,6.609,3.865,9.916,11.596,9.916c2.347,0,4.453-0.303,6.316-0.908s3.554-1.651,5.074-3.142c1.518-1.486,3.002-3.44,4.453-5.866
		c1.449-2.426,2.933-5.398,4.453-8.925c1.518-3.637,2.898-7.352,4.14-11.154c1.243-3.802,2.314-7.407,3.21-10.828
		c0.896-3.413,1.586-6.495,2.07-9.255c0.483-2.752,0.726-4.844,0.726-6.279C318.362,881.44,314.566,877.914,306.974,877.914z"/>
	<path fill="#004B85" d="M406.619,878.165l-13.047,0.169c-4.004-0.11-6.8,0.189-8.388,0.909c-1.588,0.719-2.933,2.237-4.036,4.553
		h-5.799l4.969-17.382c0.69-2.32,1.347-4.168,1.968-5.548c0.621-1.38,1.413-2.426,2.38-3.146c0.967-0.715,2.243-1.16,3.832-1.325
		s3.694-0.248,6.316-0.248h75.174c3.59,0,16.85-0.059,16.85-0.059c-0.692,2.206-5.115,16.285-5.667,17.606
		c-0.553,1.329-1.243,2.32-2.07,2.98c-0.83,0.66-1.935,1.077-3.314,1.242s-3.175,0.248-5.382,0.248h-19.88l-21.332,74.533
		c-0.415,1.438-0.657,2.43-0.726,2.98c-0.069,0.554-0.102,1.108-0.102,1.659c0,2.76,2.139,4.474,6.42,5.135l-1.242,4.14h-40.176
		c-6.766,0-10.147-1.766-10.147-5.3c0-0.885,0.207-2.096,0.621-3.645L406.619,878.165z"/>
	<path fill="#004B85" d="M521.585,943.463h22.568c5.524,0,9.318-0.413,11.394-1.243c2.068-0.829,3.656-2.622,4.761-5.382h5.799
		l-6.008,21.011c-0.55,1.875-1.136,3.389-1.757,4.545c-0.621,1.16-1.451,2.045-2.489,2.65c-1.034,0.605-2.383,1.018-4.034,1.238
		c-1.659,0.22-3.798,0.33-6.421,0.33h-62.75c-6.489,0-9.733-1.71-9.733-5.127c0-1.211,0.207-2.48,0.621-3.802l25.059-87.57
		c0.413-1.435,0.69-2.426,0.828-2.98c0.138-0.55,0.208-1.104,0.208-1.655c0-2.76-2.209-4.466-6.627-5.135l1.243-4.136h40.174
		c6.767,0,10.147,1.77,10.147,5.3c0,1.101-0.208,2.315-0.621,3.641L521.585,943.463z"/>
	<path fill="#004B85" d="M627.017,871.242c2.209-3.641,3.314-6.016,3.314-7.117c0-2.209-2.001-3.476-6.004-3.81l1.243-4.14h55.5
		c2.623,0,4.588,0.197,5.901,0.582c1.309,0.385,2.312,1.022,3,1.903c0.417,0.661,0.692,1.462,0.83,2.398
		c0.138,0.943,0.279,2.736,0.413,5.382l5.387,88.75c0.275,2.206,0.999,3.861,2.174,4.966c1.176,1.105,3.142,1.876,5.902,2.316
		l-1.243,4.14h-38.31c-2.348,0-4.247-0.11-5.693-0.33c-1.455-0.221-2.591-0.605-3.42-1.156c-0.826-0.55-1.38-1.372-1.655-2.473
		c-0.275-1.102-0.413-2.532-0.413-4.294l-0.621-17.665h-35.621l-7.25,12.877c-1.101,1.981-1.651,3.468-1.651,4.458
		c0,2.312,1.998,3.798,6,4.459l-1.03,4.124h-36.242c-5.386,0-8.076-1.436-8.076-4.305c0-1.325,0.55-2.815,1.655-4.471
		L627.017,871.242z M652.699,921.445l-1.451-40.233l-22.78,40.233H652.699z"/>
	<path fill="#004B85" d="M740.541,870.085c0.413-1.439,0.692-2.43,0.826-2.98c0.142-0.551,0.212-1.105,0.212-1.659
		c0-2.756-2.209-4.466-6.628-5.131l1.242-4.14h40.795c3.869,0,6.42,0.251,7.663,0.747c1.243,0.495,2.276,1.683,3.11,3.558
		l20.5,44.373l9.939-34.768c0.412-1.439,0.691-2.43,0.825-2.98c0.142-0.551,0.213-1.105,0.213-1.659c0-2.756-2.21-4.466-6.629-5.131
		l1.242-4.14h33.136c6.763,0,10.145,1.714,10.145,5.135c0,1.215-0.205,2.485-0.621,3.806l-28.993,101.497H801.01
		c-2.21,0-3.971-0.055-5.28-0.165c-1.31-0.11-2.379-0.386-3.212-0.83c-0.826-0.44-1.518-1.128-2.068-2.067
		c-0.55-0.936-1.172-2.179-1.864-3.728l-22.78-49.004l-12.011,41.888c-0.413,1.431-0.692,2.43-0.83,2.98
		c-0.138,0.55-0.204,1.101-0.204,1.651c0,2.76,2.139,4.474,6.417,5.135l-1.034,4.14H725.01c-6.904,0-10.356-1.71-10.356-5.131
		c0-0.551,0.071-1.188,0.204-1.903c0.142-0.719,0.346-1.353,0.625-1.906L740.541,870.085z"/>
	<path fill="#004B85" d="M882.64,870.062c0.412-1.439,0.691-2.43,0.825-2.984c0.142-0.55,0.212-1.104,0.212-1.655
		c0-2.76-2.209-4.47-6.628-5.135l1.242-4.14h81.182c3.86,0,7.175,0.083,9.938,0.248c2.761,0.165,5.104,0.444,7.038,0.83
		s3.594,0.939,4.97,1.655c1.384,0.719,2.697,1.573,3.939,2.567c2.344,2.1,4.034,4.557,5.072,7.372
		c1.033,2.815,1.553,6.377,1.553,10.679c0,5.41-0.794,11.929-2.383,19.544c-1.588,7.62-4.108,16.509-7.561,26.661
		c-1.655,5.189-3.311,9.691-4.97,13.501c-1.655,3.811-3.412,7.121-5.276,9.936c-1.863,2.815-3.833,5.19-5.905,7.12
		c-2.072,1.935-4.349,3.617-6.833,5.053c-3.59,1.989-7.423,3.369-11.496,4.14c-4.073,0.774-9.559,1.16-16.458,1.16h-63.992
		c-6.904,0-10.356-1.766-10.356-5.3c0-0.44,0.071-0.963,0.204-1.573c0.142-0.609,0.347-1.297,0.626-2.071L882.64,870.062z
		 M924.264,878.165l-18.64,65.298h6.424c2.619,0,4.762-0.028,6.417-0.083c1.659-0.055,3.035-0.165,4.144-0.33
		c1.102-0.165,2.037-0.44,2.792-0.83c0.763-0.385,1.486-0.853,2.178-1.411c2.21-1.875,4.313-5.052,6.314-9.526
		c2.001-4.474,4.246-11.076,6.731-19.804c3.452-11.823,5.178-19.997,5.178-24.53c0-3.205-0.861-5.441-2.591-6.711
		c-1.723-1.27-4.797-1.907-9.216-1.907L924.264,878.165z"/>
</g>
<g>
</g>
<g>
</g>
<g>
</g>
<g>
</g>
<g>
</g>
<g>
</g>
</svg>
